<?xml version="1.0" encoding="UTF-8" standalone="no"?>
<!DOCTYPE svg PUBLIC "-//W3C//DTD SVG 1.1//EN" "http://www.w3.org/Graphics/SVG/1.1/DTD/svg11.dtd">
<svg width="100%" height="100%" viewBox="0 0 256 256" version="1.1" xmlns="http://www.w3.org/2000/svg" xmlns:xlink="http://www.w3.org/1999/xlink" xml:space="preserve" xmlns:serif="http://www.serif.com/" style="fill-rule:evenodd;clip-rule:evenodd;">
    <g id="Layer-2" serif:id="Layer 2" transform="matrix(2.65524,0,0,2.59372,-234.833,-152.215)">
        <g id="Layer-1" serif:id="Layer 1">
            <g id="Layer-21" serif:id="Layer 2">
                <path id="logo" d="M129.134,152.042C119.451,146.352 94.594,131.45 93.703,130.8L92.809,130.148L92.809,82.589L93.76,81.842C94.283,81.431 96.853,79.854 99.47,78.337C102.088,76.821 110.961,71.671 119.19,66.894C136.643,56.761 133.921,57.493 140.332,61.209C143.179,62.86 151.639,67.762 159.131,72.103C177.712,82.87 176.394,82.018 176.6,83.396C177.004,86.111 176.624,129.874 176.193,130.279C174.598,131.775 135.56,155.052 134.666,155.04C134.424,155.037 131.935,153.688 129.134,152.042ZM136.942,145.603C144.75,141.086 168.843,126.477 169.102,126.102C169.641,125.323 169.335,117.672 168.771,117.814C168.472,117.889 160.808,122.249 151.739,127.502C131.872,139.011 138.697,139.664 110.889,123.593C98.705,116.551 99.963,116.761 99.968,121.774C99.973,126.7 98.624,125.316 110.146,132.216C136.971,148.281 134.471,147.032 136.942,145.603ZM131.061,115.643L131.061,104.816L130.029,104.499C116.305,100.284 117.1,80.836 131.127,77.657C148.049,73.821 156.384,96.398 140.761,103.752L138.491,104.82L138.491,115.646C138.491,121.599 138.594,126.471 138.72,126.471C139.021,126.471 168.204,109.608 168.834,109.07C169.285,108.686 169.314,107.871 169.247,97.533L169.175,86.41L151.844,76.388L134.513,66.367L133.681,66.833C132.25,67.634 104.619,83.714 102.303,85.095L100.101,86.407L100.029,97.54C99.966,107.346 100.009,108.715 100.386,109.016C101.217,109.679 130.378,126.451 130.717,126.461C130.987,126.469 131.061,124.134 131.061,115.643L131.061,115.643ZM138.375,97.227C144.997,93.308 141.679,83.607 133.922,84.205C128.062,84.658 125.199,91.441 129.044,95.761C131.3,98.295 135.464,98.949 138.375,97.227Z" style="fill:rgb(236,98,36);fill-rule:nonzero;"/>
                <g id="g76" transform="matrix(0.750065,0,0,0.750065,62.1856,27.1117)">
                    <circle id="path17" cx="132.556" cy="148.517" r="25.167" style="fill:rgb(47,72,88);"/>
                    <g id="g16" transform="matrix(0.17926,0,0,0.186092,83.8556,123.953)">
                        <g id="path15" transform="matrix(0.264583,0,0,0.264583,-30.4271,12.9646)">
                            <path d="M1139.58,562.302C1133.66,559.373 1000.12,413.949 995.416,405.309C990.172,395.682 991.752,385.747 999.847,377.439C1007.27,369.82 1018.03,368.182 1027.82,373.179C1030.15,374.367 1038.93,382.921 1048.07,392.896C1056.94,402.587 1077.94,425.525 1094.75,443.871L1125.3,477.227L1125.86,288.039L1126.41,98.85L1129.48,94.213C1138.44,80.67 1156.91,79.011 1167.56,90.792C1169.76,93.236 1172.17,96.586 1172.91,98.237C1173.93,100.524 1174.38,145.908 1174.81,288.952L1175.36,476.667L1221.53,426.122C1246.93,398.323 1269.49,374.574 1271.66,373.346C1287.73,364.299 1307.36,376.091 1307.36,394.788C1307.36,398.678 1306.56,402.364 1305.12,405.119C1303.89,407.475 1279.76,434.684 1251.48,465.584C1165.63,559.416 1164.87,560.221 1159.9,562.478C1153.78,565.255 1145.4,565.182 1139.58,562.302Z" style="fill:rgb(222,227,219);fill-rule:nonzero;stroke:rgb(0,212,0);stroke-width:1.11px;"/>
                        </g>
                        <g id="path16" transform="matrix(0.264583,0,0,0.264583,-30.4271,12.9646)">
                            <path d="M966.22,730.264C914.89,727.385 884.901,717.28 862.876,695.442C841.913,674.657 831.981,649.036 827.679,604.648C825.764,584.884 824.901,506.669 826.534,500.838C831.841,481.884 856.167,476.671 868.649,491.814C870.482,494.038 872.508,497.933 873.149,500.468C873.807,503.068 874.567,523.996 874.892,548.466C875.763,614.019 878.985,635.807 890.309,652.7C898.917,665.543 911.336,672.839 931.725,677.031C954.101,681.632 957.18,681.711 1133.64,682.203C1329.5,682.749 1348.15,682.249 1373.79,675.773C1405.13,667.854 1417.75,650.033 1422.97,606.316C1423.7,600.198 1424.61,574.165 1424.99,548.466C1425.67,502.161 1425.7,501.692 1428.33,496.356C1431.51,489.896 1437.59,485.197 1445.11,483.394C1452.76,481.558 1460.89,483.967 1466.51,489.733C1474,497.415 1474.07,497.905 1474.06,539.808C1474.04,608.668 1470.01,640.078 1457.89,665.67C1439.35,704.841 1408.4,722.945 1348.91,729.407C1334.25,731 992.969,731.764 966.22,730.264Z" style="fill:rgb(222,227,219);fill-rule:nonzero;stroke:rgb(0,212,0);stroke-width:1.11px;"/>
                        </g>
                    </g>
                </g>
            </g>
        </g>
    </g>
</svg>
