<?xml version="1.0" encoding="UTF-8" standalone="no"?>
<!DOCTYPE svg PUBLIC "-//W3C//DTD SVG 1.1//EN" "http://www.w3.org/Graphics/SVG/1.1/DTD/svg11.dtd">
<svg width="100%" height="100%" viewBox="0 0 416 797" version="1.1" xmlns="http://www.w3.org/2000/svg" xmlns:xlink="http://www.w3.org/1999/xlink" xml:space="preserve" xmlns:serif="http://www.serif.com/" style="fill-rule:evenodd;clip-rule:evenodd;stroke-linejoin:round;stroke-miterlimit:2;">
    <g id="Layer1" transform="matrix(1,0,0,1,0,147.418)">
        <g id="logo" transform="matrix(3.11811,0,0,3.11811,-115.757,-207.814)">
            <path d="M98.175,165.007C88.492,159.317 63.635,144.414 62.744,143.765L61.85,143.113L61.85,95.553L62.801,94.806C63.324,94.395 65.894,92.818 68.511,91.302C71.129,89.785 80.002,84.636 88.231,79.859C105.684,69.725 102.962,70.457 109.373,74.174C112.22,75.824 120.68,80.726 128.172,85.068C146.753,95.835 145.435,94.982 145.641,96.361C146.045,99.075 145.665,142.839 145.234,143.243C143.639,144.739 104.601,168.016 103.707,168.005C103.465,168.002 100.976,166.652 98.175,165.007ZM105.983,158.568C113.791,154.051 137.884,139.441 138.143,139.066C138.682,138.287 138.376,130.637 137.812,130.779C137.513,130.854 129.849,135.214 120.78,140.467C100.913,151.975 107.738,152.629 79.93,136.557C67.746,129.516 69.004,129.725 69.009,134.739C69.014,139.664 67.665,138.28 79.187,145.181C106.012,161.246 103.512,159.997 105.983,158.568ZM100.102,128.608L100.102,117.781L99.07,117.464C85.346,113.248 86.141,93.801 100.168,90.621C117.09,86.785 125.425,109.362 109.802,116.716L107.532,117.785L107.532,128.61C107.532,134.564 107.635,139.435 107.761,139.435C108.062,139.435 137.245,122.573 137.875,122.035C138.326,121.65 138.355,120.835 138.288,110.498L138.216,99.374L120.885,89.353L103.554,79.332L102.722,79.797C101.291,80.598 73.66,96.679 71.344,98.059L69.142,99.371L69.071,110.505C69.007,120.31 69.05,121.68 69.427,121.98C70.258,122.644 99.419,139.416 99.758,139.425C100.028,139.433 100.102,137.099 100.102,128.608L100.102,128.608ZM107.416,110.191C114.038,106.273 110.72,96.571 102.963,97.17C97.103,97.622 94.24,104.406 98.085,108.725C100.341,111.259 104.505,111.914 107.416,110.191Z" style="fill:rgb(236,98,36);fill-rule:nonzero;"/>
        </g>
        <g id="path1" transform="matrix(1.77252,0,0,1.77252,19.4482,18.0814)">
            <path d="M29.766,217.725C20.19,215.78 15.277,203.885 20.05,194.204C25.448,183.256 43.296,183.556 47.116,194.66C47.874,196.862 47.891,196.85 44.067,196.85L40.757,196.85L40.231,195.82C36.731,188.96 26.013,192.165 24.894,200.407C23.532,210.445 35.02,216.515 40.112,208.447L40.752,207.433L47.36,207.433L47.36,208.123C47.36,213.927 37.517,219.3 29.766,217.725ZM52.777,217.43C52.705,217.243 52.678,210.245 52.716,201.877L52.784,186.664L59.796,186.589C67.637,186.506 69.466,186.736 71.855,188.103C77.898,191.56 78.02,201.464 72.063,204.955C70.593,205.816 70.46,205.269 73.686,211.642C77.107,218.4 77.159,217.752 73.198,217.752C69.243,217.752 69.84,218.284 66.671,211.931C63.819,206.213 64.229,206.619 61.383,206.704L59.134,206.772L59.002,212.196L58.87,217.62L55.888,217.695C53.651,217.751 52.874,217.685 52.777,217.43L52.777,217.43ZM67.659,200.791C70.361,199.483 70.771,195.062 68.366,193.17C67.262,192.302 65.879,192.065 62.383,192.145L59.134,192.22L59.061,196.442C59.021,198.765 59.047,200.819 59.119,201.007C59.364,201.644 66.255,201.47 67.659,200.791L67.659,200.791ZM91.193,217.576C91.096,217.479 91.017,214.907 91.017,211.861L91.017,206.323L89.516,203.769C88.691,202.365 86.072,198.025 83.695,194.126C81.319,190.226 79.375,186.922 79.375,186.784C79.375,186.276 86.122,186.474 86.572,186.994C86.792,187.249 88.544,190.017 90.465,193.146C94.672,199.998 93.731,200.047 98.108,192.749L101.759,186.664L105.384,186.59C109.765,186.501 109.657,186.15 106.711,190.898C105.448,192.935 102.888,197.094 101.023,200.142L97.631,205.682L97.631,211.299C97.631,214.388 97.559,217.103 97.471,217.334C97.304,217.768 91.605,217.988 91.193,217.576L91.193,217.576ZM114.16,217.43C114.089,217.243 114.061,210.245 114.099,201.877L114.168,186.664L121.576,186.664C134.133,186.664 137.465,188.825 137.442,196.957C137.422,204.492 133.463,207.41 123.235,207.429L120.661,207.434L120.518,217.62L117.404,217.695C115.06,217.751 114.258,217.686 114.16,217.43L114.16,217.43ZM128.861,201.017C134.398,198.223 131.322,192.22 124.354,192.22L120.782,192.22L120.709,196.575C120.669,198.971 120.695,201.084 120.767,201.272C121.021,201.932 127.448,201.73 128.861,201.017L128.861,201.017ZM149.881,217.43C149.812,217.243 149.725,211.554 149.688,204.788L149.622,192.484L140.891,192.22L140.891,186.664L164.703,186.664L164.703,192.22L156.501,192.484L156.236,217.62L153.123,217.694C150.778,217.751 149.977,217.685 149.881,217.43L149.881,217.43ZM164.443,217.495C164.356,217.354 166.276,212.085 168.709,205.787C171.143,199.489 173.8,192.61 174.614,190.5L176.094,186.664L179.422,186.59C183.527,186.499 182.375,184.701 188.375,200.561C191.155,207.906 193.728,214.677 194.095,215.608C194.945,217.766 194.919,217.784 191.142,217.695L187.991,217.62L186.931,214.649C185.55,210.784 186.29,211.116 179.24,211.199L173.175,211.27L172.114,214.196C171.531,215.805 170.957,217.263 170.839,217.437C170.575,217.826 164.681,217.88 164.443,217.495L164.443,217.495ZM183.271,205.638C183.623,205.416 179.936,194.601 179.508,194.601C179.215,194.601 175.362,205.276 175.547,205.575C175.711,205.841 182.857,205.9 183.271,205.638Z" style="fill:rgb(236,98,36);fill-rule:nonzero;"/>
        </g>
        <g transform="matrix(0.652656,0,0,0.652656,35.6951,70.2729)">
            <text x="78.004px" y="585.995px" style="font-family:'MyanmarMN', 'Myanmar MN';font-size:51.073px;fill:rgb(236,98,36);">DECENTRALIZE</text>
            <g transform="matrix(51.0734,0,0,51.0734,444.471,637.068)">
            </g>
            <text x="78.004px" y="637.068px" style="font-family:'MyanmarMN', 'Myanmar MN';font-size:51.073px;fill:rgb(236,98,36);">YO<tspan x="152.27px " y="637.068px ">U</tspan>R PRIVA<tspan x="373.073px 412.699px " y="637.068px 637.068px ">CY</tspan></text>
        </g>
    </g>
</svg>
