<?xml version="1.0" encoding="UTF-8" standalone="no"?>
<!DOCTYPE svg PUBLIC "-//W3C//DTD SVG 1.1//EN" "http://www.w3.org/Graphics/SVG/1.1/DTD/svg11.dtd">
<svg width="100%" height="100%" viewBox="0 0 256 256" version="1.1" xmlns="http://www.w3.org/2000/svg" xmlns:xlink="http://www.w3.org/1999/xlink" xml:space="preserve" xmlns:serif="http://www.serif.com/" style="fill-rule:evenodd;clip-rule:evenodd;stroke-linejoin:round;stroke-miterlimit:2;">
    <g id="Layer-1" serif:id="Layer 1" transform="matrix(3.9766,0,0,3.9766,-6.67429,-6.67429)">
        <path id="logo" d="M30.088,64.052C23.619,60.251 7.011,50.294 6.415,49.86L5.818,49.424L5.818,17.648L6.453,17.149C6.803,16.875 8.52,15.821 10.269,14.808C12.017,13.795 17.946,10.354 23.444,7.163C35.105,0.392 33.286,0.881 37.569,3.364C39.472,4.467 45.124,7.742 50.129,10.643C62.544,17.836 61.663,17.267 61.801,18.188C62.071,20.002 61.817,49.241 61.529,49.511C60.463,50.511 34.381,66.063 33.784,66.055C33.622,66.053 31.959,65.152 30.088,64.052ZM35.304,59.75C40.521,56.732 56.618,46.971 56.792,46.721C57.152,46.2 56.947,41.089 56.57,41.184C56.37,41.234 51.25,44.146 45.191,47.656C31.917,55.346 36.477,55.782 17.897,45.044C9.757,40.34 10.598,40.48 10.601,43.829C10.604,47.12 9.703,46.196 17.401,50.806C35.324,61.539 33.653,60.705 35.304,59.75ZM31.375,39.733L31.375,32.499L30.686,32.287C21.516,29.471 22.048,16.478 31.419,14.353C42.725,11.79 48.294,26.875 37.856,31.788L36.339,32.502L36.339,39.735C36.339,43.713 36.408,46.967 36.492,46.967C36.693,46.967 56.191,35.701 56.612,35.341C56.913,35.085 56.933,34.54 56.888,27.633L56.84,20.201L45.261,13.506L33.682,6.811L33.126,7.122C32.169,7.657 13.709,18.401 12.161,19.323L10.69,20.199L10.642,27.638C10.6,34.189 10.628,35.104 10.88,35.305C11.436,35.748 30.919,46.954 31.145,46.961C31.325,46.966 31.375,45.406 31.375,39.733L31.375,39.733ZM36.262,27.428C40.686,24.81 38.469,18.329 33.286,18.729C29.371,19.031 27.458,23.563 30.028,26.449C31.535,28.142 34.317,28.579 36.262,27.428Z" style="fill:rgb(236,98,36);fill-rule:nonzero;"/>
    </g>
</svg>
