<?xml version="1.0" encoding="UTF-8" standalone="no"?>
<!-- Created with Inkscape (http://www.inkscape.org/) -->

<svg
   width="256"
   height="256"
   viewBox="0 0 67.733334 67.733333"
   version="1.1"
   id="svg1"
   inkscape:version="1.4.2 (ebf0e940, 2025-05-08)"
   sodipodi:docname="crypta_installer.svg"
   inkscape:export-filename="crypta_installer_16.png"
   inkscape:export-xdpi="6"
   inkscape:export-ydpi="6"
   xmlns:inkscape="http://www.inkscape.org/namespaces/inkscape"
   xmlns:sodipodi="http://sodipodi.sourceforge.net/DTD/sodipodi-0.dtd"
   xmlns="http://www.w3.org/2000/svg"
   xmlns:svg="http://www.w3.org/2000/svg">
  <sodipodi:namedview
     id="namedview1"
     pagecolor="#ffffff"
     bordercolor="#000000"
     borderopacity="0.25"
     inkscape:showpageshadow="2"
     inkscape:pageopacity="0.0"
     inkscape:pagecheckerboard="0"
     inkscape:deskcolor="#d1d1d1"
     inkscape:document-units="mm"
     inkscape:zoom="1.4896473"
     inkscape:cx="318.19612"
     inkscape:cy="117.81312"
     inkscape:window-width="2560"
     inkscape:window-height="1412"
     inkscape:window-x="1496"
     inkscape:window-y="0"
     inkscape:window-maximized="1"
     inkscape:current-layer="layer3" />
  <defs
     id="defs1">
    <filter
       style="color-interpolation-filters:sRGB"
       inkscape:label="Drop Shadow"
       id="filter66"
       x="-0.40457021"
       y="-0.40457021"
       width="1.8250343"
       height="1.8181437">
      <feFlood
         result="flood"
         in="SourceGraphic"
         flood-opacity="0.498039"
         flood-color="rgb(0,0,0)"
         id="feFlood65" />
      <feGaussianBlur
         result="blur"
         in="SourceGraphic"
         stdDeviation="8.484848"
         id="feGaussianBlur65" />
      <feOffset
         result="offset"
         in="blur"
         dx="0.800000"
         dy="0.453172"
         id="feOffset65" />
      <feComposite
         result="comp1"
         operator="in"
         in="flood"
         in2="offset"
         id="feComposite65" />
      <feComposite
         result="comp2"
         operator="over"
         in="SourceGraphic"
         in2="comp1"
         id="feComposite66" />
    </filter>
  </defs>
  <g
     inkscape:label="Layer 1"
     inkscape:groupmode="layer"
     id="layer1">
    <g
       inkscape:groupmode="layer"
       id="layer3"
       inkscape:label="Layer 2"
       transform="matrix(0.56827166,0,0,0.56827166,-42.730742,-27.401402)">
      <path
         style="display:inline;fill:#ec6224;stroke-width:1.01986"
         d="m 129.13446,152.04245 c -9.68305,-5.69003 -34.540423,-20.59292 -35.43144,-21.24243 l -0.894386,-0.65196 V 106.36829 82.588521 l 0.951311,-0.746867 c 0.523222,-0.410776 3.092862,-1.987775 5.71031,-3.504441 2.617455,-1.516666 11.491175,-6.666119 19.719395,-11.443229 17.45379,-10.133263 14.73155,-9.401298 21.14251,-5.684875 2.84705,1.650428 11.30643,6.552719 18.79863,10.89398 18.58154,10.766833 17.26357,9.914788 17.46889,11.293387 0.40424,2.714317 0.0246,46.477684 -0.40676,46.882194 -1.59514,1.49603 -40.6333,24.77319 -41.52724,24.76131 -0.24205,-0.003 -2.7311,-1.35211 -5.53122,-2.99753 z m 7.80708,-6.43932 c 7.80801,-4.51691 31.9015,-19.12657 32.16088,-19.5015 0.5388,-0.77885 0.2324,-8.42925 -0.33192,-8.28737 -0.29839,0.075 -7.96252,4.43469 -17.03141,9.68815 -19.86666,11.50845 -13.04175,12.16166 -40.85053,-3.9098 -12.183842,-7.04137 -10.925861,-6.83193 -10.920625,-1.81814 0.0051,4.92543 -1.343976,3.54135 10.178025,10.44176 26.8247,16.06505 24.32492,14.81617 26.79558,13.3869 z m -5.88071,-29.9597 v -10.8274 l -1.03198,-0.31697 c -13.72384,-4.21529 -12.92836,-23.662874 1.09795,-26.842382 16.92182,-3.835863 25.25763,18.741232 9.63468,26.094982 l -2.27037,1.06866 v 10.82525 c 0,5.95389 0.10308,10.82526 0.22901,10.82526 0.30064,0 29.48417,-16.86287 30.11427,-17.40067 0.4503,-0.38434 0.47947,-1.19957 0.4128,-11.53705 l -0.0718,-11.123489 -17.33102,-10.021163 -17.331,-10.021162 -0.8319,0.46541 c -1.43157,0.800893 -29.06234,16.881601 -31.37863,18.261899 l -2.20156,1.311937 -0.0718,11.133848 c -0.0632,9.80546 -0.0207,11.17459 0.35626,11.47536 0.8314,0.6634 29.99192,17.43528 30.33101,17.44511 0.26976,0.008 0.344,-2.32659 0.344,-10.81743 z m 7.31429,-18.41677 c 6.62176,-3.91846 3.30362,-13.619999 -4.4536,-13.021337 -5.85953,0.452209 -8.72286,7.235897 -4.87736,11.555247 2.25621,2.53422 6.42028,3.18849 9.33096,1.46609 z"
         id="path3"
         sodipodi:nodetypes="sscccssssssscsssssscssccssscsssscccsscsscscssss"
         inkscape:label="logo" />
      <g
         id="g76"
         transform="matrix(0.75006478,0,0,0.75006478,62.185621,27.111714)">
        <circle
           style="display:inline;opacity:1;fill:#2f4858;fill-opacity:1;stroke:none;stroke-width:0.264583;filter:url(#filter66)"
           id="path17"
           cx="132.55565"
           cy="148.51651"
           r="25.166998"
           inkscape:label="path17" />
        <g
           id="g16"
           transform="matrix(0.17925983,0,0,0.18609236,83.855578,123.9534)"
           style="fill:#dee3db">
          <path
             style="opacity:1;fill:#dee3db;stroke:#00d400;stroke-width:1.11251"
             d="m 1139.5792,562.30161 c -5.9172,-2.92901 -139.4569,-148.35277 -144.16345,-156.99299 -5.2437,-9.62629 -3.664,-19.56158 4.43116,-27.86924 7.42479,-7.61964 18.18219,-9.25787 27.97749,-4.26066 2.3291,1.18819 11.1106,9.74224 20.2418,19.71753 8.8704,9.69038 29.8771,32.62908 46.6814,50.97488 l 30.5534,33.356 0.5562,-189.18841 0.5563,-189.188416 3.0689,-4.637241 c 8.9624,-13.542621 27.4292,-15.201734 38.0727,-3.420573 2.2078,2.443753 4.6176,5.793742 5.3552,7.444422 1.0219,2.287038 1.4733,47.671088 1.8972,190.715468 l 0.5563,187.71421 46.169,-50.54426 c 25.393,-27.79933 47.952,-51.54856 50.1313,-52.77605 16.0625,-9.04758 35.6907,2.74422 35.6907,21.44145 0,3.88989 -0.7966,7.57671 -2.2322,10.33155 -1.2278,2.35583 -25.3649,29.56506 -53.6382,60.46495 -85.8557,93.83185 -86.6162,94.63648 -91.5864,96.89365 -6.1141,2.77671 -14.5001,2.70396 -20.3188,-0.17627 z"
             id="path15"
             transform="matrix(0.26458333,0,0,0.26458333,-30.427076,12.96459)" />
          <path
             style="opacity:1;fill:#dee3db;stroke:#00d400;stroke-width:1.11251"
             d="m 966.22048,730.2642 c -51.33056,-2.87895 -81.31978,-12.9838 -103.34463,-34.82191 -20.96325,-20.78551 -30.89513,-46.40637 -35.19639,-90.79467 -1.91511,-19.7636 -2.77806,-97.97838 -1.14534,-103.80986 5.30685,-18.95419 29.63295,-24.16638 42.11485,-9.02367 1.83351,2.22437 3.85854,6.11877 4.50006,8.65422 0.65783,2.5999 1.41771,23.52788 1.74277,47.9977 0.8708,65.55269 4.09344,87.34064 15.41724,104.23446 8.60821,12.84246 21.02677,20.13804 41.41567,24.33062 22.37615,4.60122 25.45518,4.68008 201.92009,5.17175 195.8498,0.54568 214.5099,0.0461 240.1407,-6.42946 31.3462,-7.91949 43.9654,-25.74088 49.1823,-69.457 0.7302,-6.11879 1.6387,-32.15145 2.0188,-57.85037 0.6851,-46.30469 0.7151,-46.77377 3.3421,-52.10968 3.1805,-6.46047 9.2628,-11.15952 16.7782,-12.96244 7.6533,-1.83597 15.7875,0.57283 21.4065,6.33911 7.4859,7.68216 7.5598,8.17222 7.5475,50.07535 -0.02,68.85916 -4.0551,100.26944 -16.1683,125.86198 -18.5402,39.17117 -49.4933,57.27431 -108.9777,63.73622 -14.6644,1.59302 -355.94638,2.35787 -382.69442,0.85765 z"
             id="path16"
             transform="matrix(0.26458333,0,0,0.26458333,-30.427076,12.96459)" />
        </g>
      </g>
    </g>
  </g>
</svg>
